<?xml version="1.0" encoding="UTF-8"?><svg id="Calque_1" xmlns="http://www.w3.org/2000/svg" viewBox="0 0 2834.65 2834.65"><path d="M1178.74,1129.56h85.48l187.87,519.87h52.68v55.66h-193.83v-55.66h70.57l-46.72-134.19h-229.62l17.89-51.69h193.83l-96.42-278.32"/><path d="M1544.31,1212.61v-83.06h387.11v120.8h-56.13v-57.63h-277.05l-53.93,19.88ZM1544.31,1622.03v83.06h387.11v-120.8h-56.13v57.63h-277.05l-53.93-19.88Z"/><polygon points="1090.82 1566.22 978.23 1416.98 1090.82 1267.63 1031.96 1245.49 903.22 1416.98 1031.93 1588.31 1090.82 1566.22"/><polygon points="1595.35 1566.22 1707.94 1416.98 1595.35 1267.63 1654.21 1245.49 1782.95 1416.98 1654.24 1588.31 1595.35 1566.22"/></svg>